<svg xmlns="http://www.w3.org/2000/svg" xmlns:xlink="http://www.w3.org/1999/xlink" width="300" zoomAndPan="magnify" viewBox="0 0 224.87999 225" height="300" preserveAspectRatio="xMidYMid meet" version="1.0"><defs><g/><clipPath id="34aa8f82e6"><rect x="0" width="98" y="0" height="67"/></clipPath></defs><g fill="#00bf63" fill-opacity="1"><g transform="translate(-4.107397, 169.910589)"><g><path d="M 103.609375 2.828125 C 81.453125 2.828125 67.894531 -7.425781 62.9375 -27.9375 L 58.53125 -46.140625 L 50.21875 -46.140625 L 50.21875 0 L 11.5 0 L 11.5 -121.640625 L 65.0625 -121.640625 C 75.195312 -121.640625 84.125 -120.132812 91.84375 -117.125 C 99.570312 -114.125 105.554688 -109.910156 109.796875 -104.484375 C 114.046875 -99.066406 116.171875 -92.820312 116.171875 -85.75 C 116.171875 -77.851562 114.253906 -71.222656 110.421875 -65.859375 C 106.585938 -60.492188 100.664062 -56.101562 92.65625 -52.6875 C 93.476562 -48.207031 94.421875 -44.140625 95.484375 -40.484375 C 96.890625 -36.003906 98.832031 -32.878906 101.3125 -31.109375 C 103.789062 -29.347656 107.382812 -28.46875 112.09375 -28.46875 C 113.75 -28.46875 116.34375 -28.703125 119.875 -29.171875 L 119.875 -0.359375 C 114.332031 1.765625 108.910156 2.828125 103.609375 2.828125 Z M 56.9375 -70.90625 C 65.65625 -70.90625 71.8125 -71.875 75.40625 -73.8125 C 79 -75.757812 80.796875 -79.09375 80.796875 -83.8125 C 80.796875 -87.820312 79.320312 -90.738281 76.375 -92.5625 C 73.4375 -94.382812 68.785156 -95.296875 62.421875 -95.296875 L 50.21875 -95.296875 L 50.21875 -70.90625 Z M 56.9375 -70.90625 "/></g></g></g><g transform="matrix(1, 0, 0, 1, 115, 79)"><g clip-path="url(#34aa8f82e6)"><g fill="#00bf63" fill-opacity="1"><g transform="translate(0.922197, 52.753408)"><g><path d="M 12.640625 0.375 C 10.617188 0.375 8.726562 -0.160156 6.96875 -1.234375 C 5.21875 -2.304688 3.8125 -3.769531 2.75 -5.625 C 1.695312 -7.476562 1.171875 -9.539062 1.171875 -11.8125 C 1.171875 -14.050781 1.695312 -16.078125 2.75 -17.890625 C 3.8125 -19.710938 5.226562 -21.132812 7 -22.15625 C 8.769531 -23.1875 10.648438 -23.703125 12.640625 -23.703125 C 14.265625 -23.703125 15.769531 -23.25 17.15625 -22.34375 C 18.539062 -21.445312 19.585938 -20.097656 20.296875 -18.296875 L 20.296875 -23.703125 L 30.109375 -23.703125 L 30.109375 0 L 20.296875 0 L 20.296875 -4.34375 C 18.742188 -1.195312 16.191406 0.375 12.640625 0.375 Z M 15.6875 -7 C 16.925781 -7 17.988281 -7.441406 18.875 -8.328125 C 19.757812 -9.210938 20.234375 -10.265625 20.296875 -11.484375 L 20.296875 -11.859375 C 20.234375 -13.097656 19.742188 -14.148438 18.828125 -15.015625 C 17.910156 -15.890625 16.863281 -16.328125 15.6875 -16.328125 C 14.375 -16.328125 13.257812 -15.867188 12.34375 -14.953125 C 11.425781 -14.035156 10.96875 -12.941406 10.96875 -11.671875 C 10.96875 -10.359375 11.429688 -9.25 12.359375 -8.34375 C 13.296875 -7.445312 14.40625 -7 15.6875 -7 Z M 13.40625 -27.34375 C 13.3125 -27.875 13.265625 -28.421875 13.265625 -28.984375 C 13.265625 -29.703125 13.414062 -30.273438 13.71875 -30.703125 C 14.03125 -31.140625 14.484375 -31.59375 15.078125 -32.0625 C 15.546875 -32.46875 15.890625 -32.816406 16.109375 -33.109375 C 16.328125 -33.410156 16.4375 -33.757812 16.4375 -34.15625 C 16.4375 -34.5 16.28125 -34.78125 15.96875 -35 C 15.65625 -35.21875 15.171875 -35.328125 14.515625 -35.328125 C 13.679688 -35.328125 12.59375 -35.09375 11.25 -34.625 L 10.875 -38.5 C 12.65625 -39.125 14.570312 -39.4375 16.625 -39.4375 C 18.769531 -39.4375 20.335938 -39.0625 21.328125 -38.3125 C 22.328125 -37.570312 22.828125 -36.546875 22.828125 -35.234375 C 22.828125 -34.273438 22.644531 -33.503906 22.28125 -32.921875 C 21.925781 -32.347656 21.425781 -31.75 20.78125 -31.125 C 20.1875 -30.570312 19.753906 -30.09375 19.484375 -29.6875 C 19.222656 -29.28125 19.09375 -28.765625 19.09375 -28.140625 L 19.09375 -27.34375 Z M 13.40625 -27.34375 "/></g></g></g><g fill="#00bf63" fill-opacity="1"><g transform="translate(33.40668, 52.753408)"><g><path d="M 2.328125 -23.0625 L 11.71875 -23.0625 L 11.71875 -18.296875 C 13.519531 -21.898438 16.378906 -23.703125 20.296875 -23.703125 C 23.285156 -23.703125 25.628906 -22.632812 27.328125 -20.5 C 29.023438 -18.375 29.875 -15.429688 29.875 -11.671875 L 29.875 0 L 20.0625 0 L 20.0625 -12.640625 C 20.0625 -13.984375 19.773438 -15.007812 19.203125 -15.71875 C 18.628906 -16.4375 17.828125 -16.796875 16.796875 -16.796875 C 16.054688 -16.796875 15.328125 -16.554688 14.609375 -16.078125 C 13.890625 -15.597656 13.304688 -14.90625 12.859375 -14 C 12.410156 -13.09375 12.1875 -12.066406 12.1875 -10.921875 L 12.1875 0 L 2.328125 0 Z M 2.328125 -23.0625 "/></g></g></g><g fill="#00bf63" fill-opacity="1"><g transform="translate(65.471102, 52.753408)"><g><path d="M 2.328125 -30.75 L 12.1875 -32.203125 L 12.1875 -18.578125 C 12.863281 -20.222656 13.894531 -21.488281 15.28125 -22.375 C 16.664062 -23.257812 18.335938 -23.703125 20.296875 -23.703125 C 23.285156 -23.703125 25.628906 -22.632812 27.328125 -20.5 C 29.023438 -18.375 29.875 -15.429688 29.875 -11.671875 L 29.875 0 L 20.0625 0 L 20.0625 -12.640625 C 20.0625 -13.984375 19.773438 -15.007812 19.203125 -15.71875 C 18.628906 -16.4375 17.828125 -16.796875 16.796875 -16.796875 C 16.054688 -16.796875 15.328125 -16.554688 14.609375 -16.078125 C 13.890625 -15.597656 13.304688 -14.90625 12.859375 -14 C 12.410156 -13.09375 12.1875 -12.066406 12.1875 -10.921875 L 12.1875 0 L 2.328125 0 Z M 2.328125 -30.75 "/></g></g></g></g></g><g fill="#555e5a" fill-opacity="1"><g transform="translate(115.587864, 166.456736)"><g><path d="M 10.515625 -14.859375 L 6.703125 -14.859375 L 6.703125 -4.703125 C 6.703125 -4.304688 6.796875 -3.976562 6.984375 -3.71875 C 7.179688 -3.46875 7.5 -3.34375 7.9375 -3.34375 L 10.703125 -3.34375 L 10.703125 0.078125 L 7.796875 0.078125 C 5.921875 0.078125 4.609375 -0.363281 3.859375 -1.25 C 3.109375 -2.132812 2.734375 -3.210938 2.734375 -4.484375 L 2.734375 -14.859375 L 0.359375 -14.859375 L 0.359375 -18.203125 L 2.84375 -18.203125 L 3.34375 -22.96875 L 6.703125 -22.96875 L 6.703125 -18.203125 L 10.515625 -18.203125 Z M 10.515625 -14.859375 "/></g></g></g><g fill="#555e5a" fill-opacity="1"><g transform="translate(127.127443, 166.456736)"><g><path d="M 9.109375 -18.3125 L 9.28125 -18.3125 C 10.6875 -18.3125 11.765625 -18.109375 12.515625 -17.703125 C 13.273438 -17.304688 13.800781 -16.769531 14.09375 -16.09375 C 14.382812 -15.414062 14.53125 -14.648438 14.53125 -13.796875 L 14.53125 0 L 10.515625 0 L 10.515625 -13.546875 C 10.515625 -13.953125 10.414062 -14.273438 10.21875 -14.515625 C 10.03125 -14.765625 9.71875 -14.890625 9.28125 -14.890625 L 9.109375 -14.890625 C 8.597656 -14.890625 8.050781 -14.800781 7.46875 -14.625 C 6.882812 -14.457031 6.300781 -14.15625 5.71875 -13.71875 L 5.71875 0 L 1.75 0 L 1.75 -26.4375 L 5.71875 -26.4375 L 5.71875 -17.1875 C 6.707031 -17.9375 7.835938 -18.3125 9.109375 -18.3125 Z M 9.109375 -18.3125 "/></g></g></g><g fill="#555e5a" fill-opacity="1"><g transform="translate(143.290143, 166.456736)"><g><path d="M 1.75 -18.203125 L 5.71875 -18.203125 L 5.71875 0 L 1.75 0 Z M -2.1875 -28.359375 L 5.890625 -22.640625 L 4.109375 -19.875 L -4.046875 -25.484375 Z M -2.1875 -28.359375 "/></g></g></g><g fill="#555e5a" fill-opacity="1"><g transform="translate(150.752652, 166.456736)"><g/></g></g><g fill="#555e5a" fill-opacity="1"><g transform="translate(157.086678, 166.456736)"><g><path d="M 6.921875 0.109375 L 6.734375 0.109375 C 5.328125 0.109375 4.242188 -0.0859375 3.484375 -0.484375 C 2.734375 -0.890625 2.210938 -1.4375 1.921875 -2.125 C 1.640625 -2.820312 1.5 -3.582031 1.5 -4.40625 L 1.5 -13.796875 C 1.5 -14.648438 1.640625 -15.414062 1.921875 -16.09375 C 2.210938 -16.769531 2.734375 -17.304688 3.484375 -17.703125 C 4.242188 -18.109375 5.328125 -18.3125 6.734375 -18.3125 L 6.921875 -18.3125 C 8.179688 -18.3125 9.304688 -17.9375 10.296875 -17.1875 L 10.296875 -26.4375 L 14.265625 -26.4375 L 14.265625 0 L 11.328125 0 L 10.890625 -1.421875 C 10.453125 -1.054688 9.890625 -0.707031 9.203125 -0.375 C 8.523438 -0.0507812 7.765625 0.109375 6.921875 0.109375 Z M 6.734375 -3.3125 L 6.921875 -3.3125 C 7.429688 -3.3125 7.972656 -3.394531 8.546875 -3.5625 C 9.128906 -3.738281 9.710938 -4.046875 10.296875 -4.484375 L 10.296875 -13.71875 C 9.710938 -14.15625 9.128906 -14.457031 8.546875 -14.625 C 7.972656 -14.800781 7.429688 -14.890625 6.921875 -14.890625 L 6.734375 -14.890625 C 6.296875 -14.890625 5.976562 -14.765625 5.78125 -14.515625 C 5.59375 -14.273438 5.5 -13.953125 5.5 -13.546875 L 5.5 -4.65625 C 5.5 -4.269531 5.59375 -3.945312 5.78125 -3.6875 C 5.976562 -3.4375 6.296875 -3.3125 6.734375 -3.3125 Z M 6.734375 -3.3125 "/></g></g></g><g fill="#555e5a" fill-opacity="1"><g transform="translate(173.103761, 166.456736)"><g><path d="M 1.75 -18.203125 L 5.71875 -18.203125 L 5.71875 0 L 1.75 0 Z M 1.71875 -26.578125 L 5.75 -26.578125 L 5.75 -22.171875 L 1.71875 -22.171875 Z M 5.640625 8.1875 L 1.828125 8.1875 L 1.828125 3.78125 L 5.640625 3.78125 Z M 5.640625 8.1875 "/></g></g></g><g fill="#555e5a" fill-opacity="1"><g transform="translate(180.566269, 166.456736)"><g><path d="M 6.546875 -18.3125 L 9.25 -18.3125 C 11.113281 -18.332031 12.421875 -17.898438 13.171875 -17.015625 C 13.929688 -16.128906 14.3125 -15.066406 14.3125 -13.828125 L 14.3125 -11.9375 L 10.265625 -11.9375 L 10.265625 -13.546875 C 10.265625 -13.953125 10.164062 -14.273438 9.96875 -14.515625 C 9.78125 -14.765625 9.46875 -14.890625 9.03125 -14.890625 L 6.734375 -14.890625 C 6.296875 -14.890625 5.976562 -14.765625 5.78125 -14.515625 C 5.59375 -14.273438 5.5 -13.953125 5.5 -13.546875 L 5.5 -4.65625 C 5.5 -4.269531 5.59375 -3.945312 5.78125 -3.6875 C 5.976562 -3.4375 6.296875 -3.3125 6.734375 -3.3125 L 9.03125 -3.3125 C 9.46875 -3.3125 9.78125 -3.4375 9.96875 -3.6875 C 10.164062 -3.945312 10.265625 -4.269531 10.265625 -4.65625 L 10.265625 -6.15625 L 14.3125 -6.15625 L 14.3125 -4.4375 C 14.3125 -3.175781 13.925781 -2.101562 13.15625 -1.21875 C 12.394531 -0.332031 11.078125 0.109375 9.203125 0.109375 L 6.546875 0.109375 C 4.679688 0.109375 3.375 -0.328125 2.625 -1.203125 C 1.875 -2.078125 1.5 -3.144531 1.5 -4.40625 L 1.5 -13.765625 C 1.5 -15.023438 1.875 -16.097656 2.625 -16.984375 C 3.375 -17.867188 4.679688 -18.3125 6.546875 -18.3125 Z M 6.546875 -18.3125 "/></g></g></g><g fill="#555e5a" fill-opacity="1"><g transform="translate(196.364943, 166.456736)"><g><path d="M 9.109375 -18.3125 L 9.28125 -18.3125 C 10.6875 -18.3125 11.765625 -18.109375 12.515625 -17.703125 C 13.273438 -17.304688 13.800781 -16.769531 14.09375 -16.09375 C 14.382812 -15.414062 14.53125 -14.648438 14.53125 -13.796875 L 14.53125 0 L 10.515625 0 L 10.515625 -13.546875 C 10.515625 -13.953125 10.414062 -14.273438 10.21875 -14.515625 C 10.03125 -14.765625 9.71875 -14.890625 9.28125 -14.890625 L 9.109375 -14.890625 C 8.597656 -14.890625 8.050781 -14.800781 7.46875 -14.625 C 6.882812 -14.457031 6.300781 -14.15625 5.71875 -13.71875 L 5.71875 0 L 1.75 0 L 1.75 -26.4375 L 5.71875 -26.4375 L 5.71875 -17.1875 C 6.707031 -17.9375 7.835938 -18.3125 9.109375 -18.3125 Z M 9.109375 -18.3125 "/></g></g></g></svg>